<svg width="195" height="195" viewBox="0 0 195 195" fill="none" xmlns="http://www.w3.org/2000/svg">
<path d="M73.125 16.25H40.625V32.5H24.375V48.75H8.125V97.5H24.375V113.75H40.625V130H56.875V146.25H73.125V162.5H89.375V178.75H105.625V162.5H121.875V146.25H138.125V130H154.375V113.75H170.625V97.5H186.875V48.75H170.625V32.5H154.375V16.25H121.875V32.5H105.625V48.75H89.375V32.5H73.125V16.25ZM73.125 32.5V48.75H89.375V65H105.625V48.75H121.875V32.5H154.375V48.75H170.625V97.5H154.375V113.75H138.125V130H121.875V146.25H105.625V162.5H89.375V146.25H73.125V130H56.875V113.75H40.625V97.5H24.375V48.75H40.625V32.5H73.125Z" fill="#FFD541"/>
<path d="M86.75 68.5H71.75V76H64.25V83.5H56.75V106H64.25V113.5H71.75V121H79.25V128.5H86.75V136H94.25V143.5H101.75V136H109.25V128.5H116.75V121H124.25V113.5H131.75V106H139.25V83.5H131.75V76H124.25V68.5H109.25V76H101.75V83.5H94.25V76H86.75V68.5ZM86.75 76V83.5H94.25V91H101.75V83.5H109.25V76H124.25V83.5H131.75V106H124.25V113.5H116.75V121H109.25V128.5H101.75V136H94.25V128.5H86.75V121H79.25V113.5H71.75V106H64.25V83.5H71.75V76H86.75Z" fill="#FFD541"/>
<path d="M94.4993 94.333H89.8327V96.6663H87.4993V98.9997H85.166V106H87.4993V108.333H89.8327V110.666H92.166V113H94.4993V115.333H96.8327V117.666H99.166V115.333H101.499V113H103.833V110.666H106.166V108.333H108.499V106H110.833V98.9997H108.499V96.6663H106.166V94.333H101.499V96.6663H99.166V98.9997H96.8327V96.6663H94.4993V94.333ZM94.4993 96.6663V98.9997H96.8327V101.333H99.166V98.9997H101.499V96.6663H106.166V98.9997H108.499V106H106.166V108.333H103.833V110.666H101.499V113H99.166V115.333H96.8327V113H94.4993V110.666H92.166V108.333H89.8327V106H87.4993V98.9997H89.8327V96.6663H94.4993Z" fill="#FFD541"/>
</svg>
