<svg width="565" height="757" viewBox="0 0 565 757" fill="none" xmlns="http://www.w3.org/2000/svg">
<path d="M265.364 210.136L317.977 325.886L433.727 378.5L317.977 431.114L265.364 546.864L212.75 431.114L97 378.5L212.75 325.886L265.364 210.136ZM265.364 311.786L244.318 357.455L198.65 378.5L244.318 399.545L265.364 445.214L286.409 399.545L332.078 378.5L286.409 357.455L265.364 311.786ZM475.818 315.364L449.301 257.699L391.636 231.182L449.301 204.875L475.818 147L502.125 204.875L560 231.182L502.125 257.699L475.818 315.364ZM475.818 610L449.301 552.335L391.636 525.818L449.301 499.511L475.818 441.636L502.125 499.511L560 525.818L502.125 552.335L475.818 610Z" fill="#FFED4D" fill-opacity="0.32"/>
</svg>
