<svg width="840" height="840" viewBox="0 0 840 840" fill="none" xmlns="http://www.w3.org/2000/svg">
<path d="M731.587 116.104C735.026 123.559 740.827 129.439 748.492 132.772L780.386 146.606C782.504 147.533 784.306 149.057 785.571 150.992C786.836 152.927 787.51 155.188 787.51 157.5C787.51 159.812 786.836 162.073 785.571 164.008C784.306 165.943 782.504 167.467 780.386 168.394L748.755 182.227C741.202 185.418 735.161 191.384 731.876 198.896L706.834 255.78C702.371 264.731 688.905 264.731 684.416 255.78L659.374 198.896C656.01 191.438 649.994 185.497 642.495 182.227L610.864 168.394C608.746 167.467 606.944 165.943 605.679 164.008C604.414 162.073 603.74 159.812 603.74 157.5C603.74 155.188 604.414 152.927 605.679 150.992C606.944 149.057 608.746 147.533 610.864 146.606L642.495 132.772C650.047 129.582 656.089 123.616 659.374 116.104L684.416 59.22C688.879 50.2688 702.345 50.2688 706.834 59.22L731.587 116.104ZM419.554 135.581C422.015 140.759 426.294 144.851 431.576 147.079L454.256 156.529C461.081 159.6 461.081 168.525 454.256 171.596L431.576 181.046C426.233 183.181 421.925 187.302 419.554 192.544L401.809 231.656C398.527 237.772 388.946 237.772 385.691 231.656L367.946 192.544C365.495 187.359 361.213 183.263 355.924 181.046L333.244 171.596C331.737 170.995 330.445 169.956 329.535 168.613C328.625 167.27 328.138 165.685 328.138 164.062C328.138 162.44 328.625 160.855 329.535 159.512C330.445 158.169 331.737 157.13 333.244 156.529L355.924 147.079C361.266 144.944 365.575 140.823 367.946 135.581L385.691 96.4687C388.972 90.3525 398.554 90.3525 401.809 96.4687L419.554 135.581ZM105 682.5L61.3462 725.209C58.5358 728.004 56.3056 731.328 54.7838 734.988C53.2619 738.648 52.4785 742.573 52.4785 746.537C52.4785 750.501 53.2619 754.426 54.7838 758.086C56.3056 761.746 58.5358 765.07 61.3462 767.865L72.1087 778.627C83.6587 790.492 102.821 790.492 114.371 778.365L157.5 735.184L157.421 735.105L525 367.5L568.942 323.741C580.361 312.06 580.361 291.191 568.942 279.772L560.28 271.084C548.625 259.612 525 262.5 511.875 275.625L105 682.5ZM681.187 427.822C675.773 425.218 671.484 420.742 669.112 415.222L651.131 372.645C647.771 365.794 638.216 365.794 635.119 372.645L617.137 415.249C614.762 420.76 610.473 425.226 605.062 427.822L582.566 438.112C575.82 441.525 575.82 451.237 582.566 454.387L605.036 464.677C610.45 467.282 614.739 471.758 617.111 477.277L635.119 519.855C638.479 526.706 648.034 526.706 651.131 519.855L669.112 477.277C671.482 471.756 675.772 467.28 681.187 464.677L703.684 454.387C710.43 450.975 710.43 441.262 703.684 438.112L681.187 427.822ZM315 367.5C321.962 367.5 328.639 364.734 333.561 359.812C338.484 354.889 341.25 348.212 341.25 341.25C341.25 334.288 338.484 327.611 333.561 322.688C328.639 317.766 321.962 315 315 315C308.038 315 301.361 317.766 296.438 322.688C291.516 327.611 288.75 334.288 288.75 341.25C288.75 348.212 291.516 354.889 296.438 359.812C301.361 364.734 308.038 367.5 315 367.5ZM787.5 341.25C787.5 348.212 784.734 354.889 779.811 359.812C774.889 364.734 768.212 367.5 761.25 367.5C754.288 367.5 747.611 364.734 742.688 359.812C737.766 354.889 735 348.212 735 341.25C735 334.288 737.766 327.611 742.688 322.688C747.611 317.766 754.288 315 761.25 315C768.212 315 774.889 317.766 779.811 322.688C784.734 327.611 787.5 334.288 787.5 341.25ZM498.75 105C505.712 105 512.389 102.234 517.311 97.3116C522.234 92.3887 525 85.7119 525 78.75C525 71.7881 522.234 65.1113 517.311 60.1884C512.389 55.2656 505.712 52.5 498.75 52.5C491.788 52.5 485.111 55.2656 480.188 60.1884C475.266 65.1113 472.5 71.7881 472.5 78.75C472.5 85.7119 475.266 92.3887 480.188 97.3116C485.111 102.234 491.788 105 498.75 105ZM525 551.25C525 558.212 522.234 564.889 517.311 569.812C512.389 574.734 505.712 577.5 498.75 577.5C491.788 577.5 485.111 574.734 480.188 569.812C475.266 564.889 472.5 558.212 472.5 551.25C472.5 544.288 475.266 537.611 480.188 532.688C485.111 527.766 491.788 525 498.75 525C505.712 525 512.389 527.766 517.311 532.688C522.234 537.611 525 544.288 525 551.25Z" fill="#FFE68F"/>
</svg>
