<svg width="752" height="179" viewBox="0 0 752 179" fill="none" xmlns="http://www.w3.org/2000/svg">
<path d="M86.2656 117L76.2146 142.133C75.788 143.201 75.051 144.117 74.0987 144.761C73.1465 145.406 72.0228 145.75 70.8729 145.75H17.2656C15.7406 145.75 14.2781 145.144 13.1998 144.066C12.1214 142.988 11.5156 141.525 11.5156 140L11.5156 48C11.5156 46.475 12.1214 45.0125 13.1998 43.9341C14.2781 42.8558 15.7406 42.25 17.2656 42.25L70.8729 42.25C72.0228 42.2496 73.1465 42.594 74.0987 43.2387C75.051 43.8834 75.788 44.7989 76.2146 45.8668L86.2656 71L86.2656 117ZM74.7656 114.786V73.2138L66.9859 53.75L23.0214 53.75L23.0214 134.25H28.7714L28.7714 71H57.5214L57.5214 134.25H66.9859L74.7656 114.786ZM120.766 117C120.766 118.525 120.16 119.988 119.081 121.066C118.003 122.144 116.541 122.75 115.016 122.75H92.0156L92.0156 65.25H115.016C116.541 65.25 118.003 65.8558 119.081 66.9341C120.16 68.0125 120.766 69.475 120.766 71L120.766 117ZM109.266 111.25L109.266 76.75H103.516L103.516 111.25H109.266Z" fill="#C89B00"/>
<path d="M120.5 115.5L119.135 91.3894C119.045 89.8019 118.771 88.2302 118.318 86.706L113.5 70.5L140.457 139.196C142.646 144.776 149.095 147.346 154.523 144.802C158.17 143.092 162.477 143.647 165.571 146.226L170.059 149.966C173.575 152.896 178.006 154.5 182.582 154.5H192.292C195.068 154.5 197.816 155.064 200.368 156.158L206.632 158.842C209.184 159.936 211.932 160.5 214.708 160.5H228.244C228.414 160.5 228.584 160.519 228.75 160.558L237.769 162.639C239.156 162.959 238.923 165 237.5 165H206H165.5H136.5C128.678 165 122.251 158.827 121.935 151.011L120.5 115.5Z" fill="#C89B00"/>
<rect x="226" y="163" width="402" height="2" fill="#C89B00"/>
<g clip-path="url(#clip0_850_4026)">
<path d="M697.108 14.8709C697.108 14.8709 654.65 27.9305 638.054 84.8731C625.315 128.566 627.35 163.585 627.35 163.585L635.972 154.293C638.902 137.797 640.965 130.69 645.765 119.878C661.044 118.926 675.285 113.224 682.562 94.2296C670.533 95.1188 662.051 98.9871 649.635 104.956C660.536 89.8396 669.632 84.0821 684.076 81.3321L685.59 68.4347C675.088 70.1307 668.474 72.3355 659.562 78.0883C667.578 66.6079 673.521 59.6434 687.104 55.5372L689.903 42.6075C681.166 45.086 676.367 47.8699 667.459 53.8064C673.371 42.6542 680.097 36.1478 691.528 31.2137C691.528 31.2137 693.533 18.8183 697.108 14.8709Z" fill="#F8C000"/>
</g>
<defs>
<clipPath id="clip0_850_4026">
<rect width="139.381" height="139.381" fill="white" transform="translate(573 47.373) rotate(-19.8698)"/>
</clipPath>
</defs>
</svg>
